<svg id="Layer_5" data-name="Layer 5" xmlns="http://www.w3.org/2000/svg" viewBox="0 0 512 512"><path d="M112,136H80v96H96V200h16a32,32,0,0,0,0-64Zm0,48H96V152h16a16,16,0,0,1,0,32Z"/><path d="M392,168H376V152h48V136H360v48h32a16,16,0,1,1-16,16H360a32,32,0,1,0,32-32Z"/><path d="M230.54,57.32a79.53,79.53,0,0,1,14.54,4.14l5.83-14.9a96,96,0,0,0-17.46-5Z"/><path d="M121.58,118.55l15.74,2.89A79.94,79.94,0,0,1,216,56V40A95.94,95.94,0,0,0,121.58,118.55Z"/><path d="M504,184a79.83,79.83,0,0,0-96.83-78.17A71.86,71.86,0,0,0,332.3,82.75,127.92,127.92,0,0,0,92.05,104.13c-1.39-.09-2.73-.13-4-.13a80,80,0,0,0,0,160h44.3A150.92,150.92,0,0,0,104,352c0,83.82,68.18,152,152,152s152-68.18,152-152a150.92,150.92,0,0,0-28.3-88H424a80.09,80.09,0,0,0,80-80ZM256,488c-75,0-136-61-136-136s61-136,136-136,136,61,136,136S331,488,256,488ZM224,203.46A150.71,150.71,0,0,0,176,223V165.54L186.58,192h26.84L224,165.54ZM349,232H352V216H323.47a150.57,150.57,0,0,0-28.81-10.82l11.08-7.4A31.92,31.92,0,0,0,320,171.16V168a32,32,0,0,0-64,0v8h16v-8a16,16,0,0,1,32,0v3.16a15.94,15.94,0,0,1-7.13,13.31L272.23,200.9a148,148,0,0,0-32.23,0V136H218.58l-16,40h-5.16l-16-40H160v98.28A150.84,150.84,0,0,0,145.46,248H88a64,64,0,0,1,0-128,63,63,0,0,1,9.15.74l7.52,1.07,1.47-7.46A111.92,111.92,0,0,1,320.38,95.64l2.93,7.6,7.55-3.08a55.84,55.84,0,0,1,66.68,19.35l3.29,4.6,5.43-1.56A64,64,0,1,1,424,248H366.54A152.42,152.42,0,0,0,349,232Z"/><path d="M264,352a56,56,0,1,0,56-56A56.07,56.07,0,0,0,264,352Zm96,0a40,40,0,1,1-40-40A40,40,0,0,1,360,352Z"/><path d="M232,296H168a16,16,0,0,0-16,16v16a16,16,0,0,0,16,16h64a16,16,0,0,0,16-16V312A16,16,0,0,0,232,296Zm-64,32V312h64v16Z"/><path d="M152,360h96v16H152Z"/><path d="M152,392h96v16H152Z"/><path d="M439.59,312.4l-11.31,11.31a40,40,0,0,1,0,56.58l11.31,11.31a56,56,0,0,0,0-79.2Z"/><path d="M450.91,301.09a72.09,72.09,0,0,1,0,101.83l11.31,11.31a88.08,88.08,0,0,0,0-124.45Z"/><path d="M72.41,312.4a56,56,0,0,0,0,79.2l11.31-11.31a40,40,0,0,1,0-56.58Z"/><path d="M61.09,301.09,49.78,289.78a88.08,88.08,0,0,0,0,124.45l11.31-11.31a72.09,72.09,0,0,1,0-101.83Z"/></svg>