<svg height="512pt" viewBox="-41 0 512 512" width="512pt" xmlns="http://www.w3.org/2000/svg"><path d="m69.285156 222.761719h11.992188c1.671875 30.535156 13.527344 59.164062 33.9375 81.933593l-8.476563 8.480469c-7.035156 7.035157 3.671875 17.546875 10.609375 10.609375l13.601563-13.601562c.011719-.011719.023437-.023438.035156-.035156 2.929687-2.933594 2.929687-7.679688 0-10.613282-22.507813-22.511718-34.90625-52.4375-34.90625-84.273437 0-31.835938 12.398437-61.765625 34.90625-84.277344 27.9375-27.933594 68.171875-40.121094 106.722656-32.789063l-31.429687 82.816407c-15.183594 3.988281-26.417969 17.832031-26.417969 34.25 0 7.261719 2.199219 14.015625 5.964844 19.640625l-6.710938 17.683594c-6.570312 17.3125 11.121094 34.199218 28.167969 26.5625 11.992188-5.375 11.785156-16.660157 17.9375-29.910157 14.691406-4.3125 25.449219-17.910156 25.449219-33.976562 0-6.902344-1.988281-13.351563-5.417969-18.800781l31.605469-83.269532c8.214843 4.964844 15.820312 10.925782 22.683593 17.792969 22.511719 22.511719 34.910157 52.441406 34.910157 84.277344 0 31.835937-12.398438 61.761719-34.910157 84.273437-2.929687 2.933594-2.929687 7.679688 0 10.613282.039063.035156.078126.074218.117188.109374l13.523438 13.527344c6.960937 6.960938 17.640624-3.582031 10.609374-10.609375l-8.476562-8.480469c20.410156-22.769531 32.265625-51.398437 33.9375-81.933593h11.992188c9.917968 0 9.933593-15.003907 0-15.003907h-11.992188c-1.671875-30.535156-13.53125-59.160156-33.9375-81.933593l8.476562-8.480469c7.015626-7.011719-3.585937-17.632812-10.609374-10.609375l-8.480469 8.480469c-6.925781-6.199219-14.433594-11.644532-22.441407-16.257813l1.074219-2.824219c4.101563-10.804687-1.347656-22.933593-12.152343-27.039062-10.804688-4.101562-22.933594 1.347656-27.035157 12.152344l-1.039062 2.730468c-6.746094-1.421874-13.542969-2.308593-20.335938-2.675781v-12.019531c0-9.917969-15.007812-9.933594-15.007812 0v12.046875c-30.035157 1.730469-59.089844 13.496094-81.925781 33.890625l-8.484376-8.484375c-7.011718-7.015625-17.636718 3.582031-10.613281 10.609375l8.480469 8.476562c-20.410156 22.773438-32.269531 51.402344-33.941406 81.9375h-11.988282c-9.921874 0-9.933593 15.003907-.003906 15.003907zm131.855469 42.695312c-4.828125 2.160157-9.871094-2.625-8-7.546875l4.527344-11.933594c3.414062 1.960938 7.179687 3.371094 11.179687 4.105469-4.359375 10.265625-3.988281 13.707031-7.707031 15.375zm14.121094-29.796875c-11.246094 0-20.398438-9.152344-20.398438-20.398437 0-11.25 9.152344-20.398438 20.398438-20.398438 11.246093 0 20.398437 9.148438 20.398437 20.398438 0 11.246093-9.152344 20.398437-20.398437 20.398437zm54.039062-144.855468-35.738281 94.160156c-3.367188-2.042969-7.101562-3.539063-11.082031-4.367188l35.6875-94.027344c2.792969-7.347656 13.933593-3.144531 11.132812 4.234376zm0 0"/><path d="m242.277344 314.355469h-54.03125c-9.921875 0-9.933594 15.003906 0 15.003906h54.03125c9.921875 0 9.933594-15.003906 0-15.003906zm0 0"/><path d="m367.476562 63.046875c-40.660156-40.65625-94.714843-63.046875-152.214843-63.046875-52.609375 0-103.257813 19.183594-142.613281 54.015625-7.425782 6.574219 2.503906 17.820313 9.945312 11.238281 36.609375-32.402344 83.726562-50.25 132.667969-50.25 110.421875 0 200.257812 89.835938 200.257812 200.257813 0 48.941406-17.847656 96.058593-50.25 132.667969-6.574219 7.425781 4.65625 17.382812 11.238281 9.941406 34.832032-39.351563 54.015626-90 54.015626-142.609375 0-57.5-22.390626-111.558594-63.046876-152.214844zm0 0"/><path d="m215.261719 395.75c99.523437 0 180.492187-80.96875 180.492187-180.488281 0-99.523438-80.96875-180.492188-180.492187-180.492188-99.523438 0-180.488281 80.96875-180.488281 180.492188 0 99.519531 80.964843 180.488281 180.488281 180.488281zm0-345.972656c91.25 0 165.484375 74.234375 165.484375 165.484375 0 91.246093-74.234375 165.484375-165.484375 165.484375s-165.484375-74.238282-165.484375-165.484375c0-91.25 74.238281-165.484375 165.484375-165.484375zm0 0"/><path d="m323.234375 448.949219h-57.320313v-24.476563c32.347657-7.835937 62.683594-23.109375 88.371094-44.859375 7.566406-6.410156-2.117187-17.871093-9.695312-11.449219-36.070313 30.535157-81.996094 47.351563-129.328125 47.351563-110.421875 0-200.253907-89.832031-200.253907-200.253906 0-47.332031 16.816407-93.257813 47.351563-129.324219 6.410156-7.570312-5.035156-17.28125-11.453125-9.699219-32.828125 38.773438-50.90625 88.144531-50.90625 139.023438 0 57.496093 22.390625 111.554687 63.046875 152.210937 28.4375 28.433594 63.425781 47.933594 101.5625 57.089844v24.386719h-57.320313c-23.589843 0-42.777343 19.191406-42.777343 42.78125 0 11.175781 9.089843 20.269531 20.269531 20.269531h260.960938c11.175781 0 20.269531-9.09375 20.269531-20.269531 0-23.589844-19.191407-42.78125-42.777344-42.78125zm-143.617187-21.347657c11.667968 1.933594 23.582031 2.921876 35.644531 2.921876 12.007812 0 23.929687-1.007813 35.644531-2.976563v21.402344h-71.292969v-21.347657zm166.125 69.394532h-260.960938c-2.902344 0-5.265625-2.363282-5.265625-5.265625 0-15.316407 12.460937-27.773438 27.773437-27.773438h215.945313c15.3125 0 27.773437 12.457031 27.773437 27.773438 0 2.902343-2.363281 5.265625-5.265624 5.265625zm0 0"/></svg>